<svg 
 xmlns="http://www.w3.org/2000/svg"
 xmlns:xlink="http://www.w3.org/1999/xlink"
 width="41px" height="33px">
<defs>
<filter id="Filter_0">
    <feFlood flood-color="rgb(255, 59, 74)" flood-opacity="1" result="floodOut" />
    <feComposite operator="atop" in="floodOut" in2="SourceGraphic" result="compOut" />
    <feBlend mode="normal" in="compOut" in2="SourceGraphic" />
</filter>
<linearGradient id="PSgrad_0" x1="0%" x2="70.711%" y1="0%" y2="70.711%">
  <stop offset="0%" stop-color="rgb(255,255,255)" stop-opacity="1" />
  <stop offset="100%" stop-color="rgb(255,255,255)" stop-opacity="1" />
</linearGradient>

</defs>
<g filter="url(#Filter_0)">
<path fill-rule="evenodd"  fill="url(#PSgrad_0)"
 d="M40.081,10.446 C40.081,10.414 40.055,10.399 40.050,10.368 C40.042,10.299 40.055,10.229 40.026,10.163 L35.907,0.466 C35.793,0.201 35.530,0.026 35.238,0.026 L4.840,0.026 C4.547,0.026 4.284,0.201 4.171,0.466 L0.049,10.163 C0.020,10.229 0.033,10.299 0.023,10.368 C0.020,10.399 -0.006,10.414 -0.006,10.446 C-0.006,10.460 0.010,10.472 0.010,10.488 C0.020,10.646 0.065,10.797 0.173,10.922 L19.493,32.755 C19.508,32.774 19.537,32.766 19.553,32.786 C19.606,32.832 19.648,32.874 19.711,32.908 C19.724,32.913 19.727,32.936 19.745,32.942 C19.840,32.982 19.940,33.002 20.035,33.002 C20.132,33.002 20.232,32.982 20.327,32.942 C20.345,32.936 20.348,32.913 20.361,32.905 C20.424,32.874 20.467,32.832 20.517,32.786 C20.535,32.766 20.564,32.774 20.580,32.755 L39.900,10.922 C40.008,10.797 40.055,10.646 40.065,10.488 C40.065,10.472 40.081,10.460 40.081,10.446 ZM24.965,1.469 L28.518,9.725 L11.557,9.725 L15.113,1.469 L24.965,1.469 ZM28.508,11.167 L20.035,30.474 L11.567,11.167 L28.508,11.167 ZM9.983,11.167 L17.513,28.338 L2.321,11.167 L9.983,11.167 ZM30.092,11.167 L37.752,11.167 L22.559,28.335 L30.092,11.167 ZM38.265,9.725 L30.095,9.725 L26.542,1.469 L34.756,1.469 L38.265,9.725 ZM5.319,1.469 L13.539,1.469 L9.983,9.725 L1.810,9.725 L5.319,1.469 Z"/>
</g>
</svg>