<svg 
 xmlns="http://www.w3.org/2000/svg"
 xmlns:xlink="http://www.w3.org/1999/xlink"
 width="41px" height="41px">
<defs>
<filter id="Filter_0">
    <feFlood flood-color="rgb(255, 59, 74)" flood-opacity="1" result="floodOut" />
    <feComposite operator="atop" in="floodOut" in2="SourceGraphic" result="compOut" />
    <feBlend mode="normal" in="compOut" in2="SourceGraphic" />
</filter>
<linearGradient id="PSgrad_0" x1="0%" x2="70.711%" y1="0%" y2="70.711%">
  <stop offset="0%" stop-color="rgb(128,39,117)" stop-opacity="1" />
  <stop offset="0%" stop-color="rgb(255,255,255)" stop-opacity="1" />
  <stop offset="100%" stop-color="rgb(255,255,255)" stop-opacity="1" />
</linearGradient>

</defs>
<g filter="url(#Filter_0)">
<path fill-rule="evenodd"  fill="url(#PSgrad_0)"
 d="M40.201,23.207 L35.221,24.459 C34.929,25.439 34.535,26.388 34.052,27.288 L36.696,31.704 C36.865,31.990 36.821,32.353 36.586,32.586 L33.172,36.016 C32.937,36.248 32.574,36.288 32.295,36.125 L27.889,33.473 C26.981,33.970 26.031,34.371 25.057,34.678 L23.825,39.641 C23.744,39.960 23.457,40.186 23.125,40.186 L18.294,40.189 C17.965,40.189 17.678,39.963 17.597,39.644 L16.360,34.681 C15.397,34.383 14.447,33.977 13.528,33.476 L9.127,36.125 C8.845,36.295 8.482,36.248 8.250,36.019 L4.831,32.588 C4.598,32.356 4.554,31.993 4.724,31.709 L7.365,27.302 C6.874,26.390 6.480,25.441 6.188,24.464 L1.213,23.217 C0.894,23.137 0.667,22.846 0.667,22.519 L0.667,17.675 C0.667,17.342 0.894,17.053 1.213,16.975 L6.159,15.737 C6.462,14.761 6.867,13.808 7.363,12.892 L4.721,8.477 C4.551,8.193 4.596,7.829 4.828,7.596 L8.242,4.173 C8.477,3.938 8.840,3.889 9.122,4.065 L13.523,6.711 C14.428,6.225 15.376,5.826 16.349,5.534 L17.592,0.544 C17.673,0.223 17.960,-0.003 18.289,-0.003 L23.120,-0.003 C23.449,-0.003 23.739,0.223 23.817,0.544 L25.054,5.510 C26.025,5.814 26.976,6.218 27.884,6.708 L32.290,4.056 C32.566,3.895 32.932,3.938 33.167,4.167 L36.581,7.591 C36.816,7.824 36.860,8.187 36.691,8.473 L34.049,12.892 C34.535,13.798 34.929,14.748 35.221,15.718 L40.201,16.970 C40.522,17.048 40.747,17.339 40.747,17.669 L40.747,22.510 C40.747,22.839 40.522,23.130 40.201,23.207 ZM39.309,18.232 L34.469,17.016 C34.216,16.955 34.018,16.759 33.950,16.506 C33.645,15.373 33.188,14.270 32.595,13.234 C32.467,13.010 32.470,12.730 32.603,12.504 L35.169,8.214 L32.548,5.586 L28.268,8.162 C28.046,8.297 27.769,8.303 27.539,8.168 C26.495,7.564 25.394,7.097 24.261,6.776 C24.013,6.708 23.822,6.510 23.760,6.259 L22.559,1.439 L18.853,1.439 L17.644,6.287 C17.582,6.539 17.386,6.740 17.135,6.807 C16.000,7.117 14.901,7.575 13.867,8.169 C13.643,8.303 13.366,8.300 13.139,8.162 L8.863,5.588 L6.243,8.219 L8.809,12.504 C8.944,12.730 8.944,13.010 8.814,13.236 C8.211,14.289 7.741,15.397 7.425,16.529 C7.355,16.781 7.156,16.972 6.906,17.035 L2.106,18.238 L2.106,21.953 L6.940,23.168 C7.193,23.231 7.391,23.427 7.459,23.679 C7.767,24.815 8.221,25.916 8.819,26.954 C8.949,27.181 8.947,27.462 8.811,27.686 L6.245,31.970 L8.869,34.602 L13.144,32.026 C13.259,31.957 13.387,31.922 13.515,31.922 C13.637,31.922 13.763,31.953 13.875,32.018 C14.930,32.628 16.034,33.096 17.153,33.408 C17.401,33.479 17.592,33.681 17.657,33.931 L18.858,38.746 L22.564,38.743 L23.762,33.926 C23.825,33.678 24.016,33.479 24.263,33.408 C25.399,33.089 26.500,32.620 27.542,32.017 C27.769,31.883 28.046,31.887 28.270,32.020 L32.551,34.600 L35.174,31.965 L32.603,27.676 C32.467,27.450 32.467,27.169 32.595,26.942 C33.188,25.914 33.642,24.817 33.950,23.672 C34.018,23.421 34.216,23.226 34.469,23.163 L39.309,21.946 L39.309,18.232 ZM20.711,25.657 C17.652,25.657 15.162,23.163 15.162,20.092 C15.162,17.023 17.652,14.529 20.711,14.529 C23.768,14.529 26.255,17.023 26.255,20.092 C26.255,23.163 23.768,25.657 20.711,25.657 ZM20.711,15.971 C18.443,15.971 16.600,17.820 16.600,20.092 C16.600,22.364 18.443,24.215 20.711,24.215 C22.974,24.215 24.817,22.364 24.817,20.092 C24.817,17.820 22.974,15.971 20.711,15.971 Z"/>
</g>
</svg>