<svg 
 xmlns="http://www.w3.org/2000/svg"
 xmlns:xlink="http://www.w3.org/1999/xlink"
 width="40px" height="38px">
<defs>
<filter id="Filter_0">
    <feFlood flood-color="rgb(255, 59, 74)" flood-opacity="1" result="floodOut" />
    <feComposite operator="atop" in="floodOut" in2="SourceGraphic" result="compOut" />
    <feBlend mode="normal" in="compOut" in2="SourceGraphic" />
</filter>
<linearGradient id="PSgrad_0" x1="0%" x2="70.711%" y1="0%" y2="70.711%">
  <stop offset="0%" stop-color="rgb(255,255,255)" stop-opacity="1" />
  <stop offset="100%" stop-color="rgb(255,255,255)" stop-opacity="1" />
</linearGradient>

</defs>
<g filter="url(#Filter_0)">
<path fill-rule="evenodd"  fill="url(#PSgrad_0)"
 d="M39.700,13.067 C38.651,10.253 37.101,7.710 35.091,5.508 C33.093,3.319 30.701,1.546 27.978,0.238 C27.672,0.093 27.305,0.144 27.053,0.377 L9.565,16.339 L7.545,18.182 C7.436,18.269 7.342,18.385 7.285,18.527 C7.276,18.547 7.266,18.575 7.257,18.600 L2.555,30.810 L0.548,36.026 C0.432,36.321 0.499,36.653 0.711,36.889 C0.872,37.065 1.096,37.158 1.327,37.158 C1.403,37.158 1.481,37.149 1.557,37.125 L6.936,35.601 L19.585,32.014 C19.664,31.992 19.743,31.957 19.816,31.911 C19.855,31.883 19.895,31.853 19.931,31.823 L21.996,29.938 L39.481,13.975 C39.733,13.745 39.818,13.385 39.700,13.067 ZM3.780,32.273 C3.813,32.295 3.852,32.308 3.886,32.325 C4.244,32.550 4.577,32.798 4.853,33.104 C5.129,33.407 5.347,33.759 5.538,34.134 C5.560,34.168 5.569,34.210 5.584,34.247 L2.706,35.065 L3.780,32.273 ZM18.946,30.459 L7.233,33.780 C7.200,33.708 7.142,33.653 7.106,33.583 C6.836,32.996 6.511,32.443 6.087,31.977 C5.660,31.511 5.138,31.141 4.577,30.817 C4.507,30.776 4.465,30.714 4.395,30.677 L8.767,19.326 L10.077,18.137 L11.135,19.293 L20.249,29.268 L18.946,30.459 ZM21.483,28.141 L18.837,25.245 L32.738,12.562 C32.917,12.395 33.008,12.169 33.008,11.940 C33.008,11.743 32.938,11.540 32.790,11.380 C32.480,11.040 31.950,11.018 31.610,11.327 L17.709,24.012 L17.166,23.414 L15.083,21.130 L28.979,8.447 C29.160,8.279 29.252,8.055 29.252,7.825 C29.252,7.628 29.179,7.426 29.033,7.265 C28.721,6.926 28.190,6.905 27.851,7.213 L13.952,19.899 L11.311,17.005 L27.757,1.993 C30.076,3.180 32.129,4.737 33.857,6.638 C35.597,8.540 36.962,10.722 37.932,13.128 L21.483,28.141 Z"/>
</g>
</svg>